<?xml version="1.0" encoding="UTF-8" standalone="no"?>
<svg
   xmlns:dc="http://purl.org/dc/elements/1.1/"
   xmlns:cc="http://creativecommons.org/ns#"
   xmlns:rdf="http://www.w3.org/1999/02/22-rdf-syntax-ns#"
   xmlns:svg="http://www.w3.org/2000/svg"
   xmlns="http://www.w3.org/2000/svg"
   xmlns:sodipodi="http://sodipodi.sourceforge.net/DTD/sodipodi-0.dtd"
   xmlns:inkscape="http://www.inkscape.org/namespaces/inkscape"
   width="175px"
   height="39px"
   viewBox="0 0 175 39"
   version="1.1"
   id="svg2"
   inkscape:version="0.47 r22583"
   sodipodi:docname="cli-image.svg">
  <metadata
     id="metadata34">
    <rdf:RDF>
      <cc:Work
         rdf:about="">
        <dc:format>image/svg+xml</dc:format>
        <dc:type
           rdf:resource="http://purl.org/dc/dcmitype/StillImage" />
      </cc:Work>
    </rdf:RDF>
  </metadata>
  <sodipodi:namedview
     pagecolor="#ffffff"
     bordercolor="#666666"
     borderopacity="1"
     objecttolerance="10"
     gridtolerance="10"
     guidetolerance="10"
     inkscape:pageopacity="0"
     inkscape:pageshadow="2"
     inkscape:window-width="1440"
     inkscape:window-height="838"
     id="namedview32"
     showgrid="false"
     inkscape:zoom="3.0857143"
     inkscape:cx="87.636667"
     inkscape:cy="19.688003"
     inkscape:window-x="-8"
     inkscape:window-y="-8"
     inkscape:window-maximized="1"
     inkscape:current-layer="Page-1" />
  <!-- Generator: Sketch 43.2 (39069) - http://www.bohemiancoding.com/sketch -->
  <title
     id="title4">Slice 1</title>
  <desc
     id="desc6">Created with Sketch.</desc>
  <defs
     id="defs8">
    <inkscape:perspective
       sodipodi:type="inkscape:persp3d"
       inkscape:vp_x="0 : 19.5 : 1"
       inkscape:vp_y="0 : 1000 : 0"
       inkscape:vp_z="175 : 19.5 : 1"
       inkscape:persp3d-origin="87.5 : 13 : 1"
       id="perspective36" />
  </defs>
  <g
     id="Page-1"
     stroke="none"
     stroke-width="1"
     fill="none"
     fill-rule="evenodd">
    <g
       id="play-outline"
       transform="translate(74.000000, 0.000000)"
       fill-rule="nonzero"
       fill="#000000">
      <polygon
         id="Shape"
         points="8 17 17 12 8 7" />
      <path
         d="M12,2 C17.5,2 22,6.5 22,12 C22,17.5 17.5,22 12,22 C6.5,22 2,17.5 2,12 C2,6.5 6.5,2 12,2 Z M12,0 C5.4,0 0,5.4 0,12 C0,18.6 5.4,24 12,24 C18.6,24 24,18.6 24,12 C24,5.4 18.6,0 12,0 Z"
         id="path13" />
    </g>
    <g
       id="header-docs"
       transform="translate(138.000000, 0.000000)"
       fill-rule="nonzero"
       fill="#000000">
      <path
         d="M2.25,19.6363636 L2.25,2.18181818 L8.55,2.18181818 C8.55,2.18181818 13.5,2.18181818 13.5,5.45454545 L13.5,20.9454545 C13.5,20.9454545 12.825,19.6363636 8.325,19.6363636 L2.25,19.6363636 Z M16.875,0 C14.4,0 13.5,1.74545455 13.5,1.74545455 C13.5,1.74545455 12.6,0 8.55,0 L0,0 L0,21.8181818 L8.325,21.8181818 C8.325,21.8181818 13.5,21.8181818 13.5,24 C13.5,21.8181818 18.45,21.8181818 18.45,21.8181818 L27,21.8181818 L27,0 L16.875,0 Z"
         id="path16" />
    </g>
    <g
       id="download"
       transform="translate(10.000000, 0.000000)"
       fill-rule="nonzero"
       fill="#000000">
      <polygon
         id="polygon19"
         points="19 9.4 17.8 8.3 13 13 13 0 11 0 11 13 6.2 8.3 5 9.4 12 16" />
      <polygon
         id="polygon21"
         points="22 14 22 20 2 20 2 14 0 14 0 24 24 24 24 14" />
    </g>
    <text
       id="Download"
       font-size="10"
       font-weight="300"
       x="12"
       style="font-size:10px;font-weight:300;fill:#1d3649;font-family:'HelveticaNeue-Light, Helvetica Neue'">
      <tspan
         x="12"
         y="37"
         id="tspan24"
         style="font-family:SimHei;-inkscape-font-specification:SimHei">下载</tspan>
    </text>
    <text
       id="Get-Started"
       font-size="10"
       font-weight="300"
       x="14.972222"
       style="font-size:10px;font-weight:300;fill:#1d3649;font-family:'HelveticaNeue-Light, Helvetica Neue'">
      <tspan
         x="75.972221"
         y="37"
         id="tspan27"
         style="font-family:SimHei;-inkscape-font-specification:SimHei">入门</tspan>
    </text>
    <text
       id="View-Docs"
       font-size="10"
       font-weight="300"
       x="4"
       style="font-size:10px;font-weight:300;fill:#1d3649;font-family:'HelveticaNeue-Light, Helvetica Neue'">
      <tspan
         x="133"
         y="37"
         id="tspan30"
         style="font-family:SimHei;-inkscape-font-specification:SimHei">查看文档</tspan>
    </text>
  </g>
</svg>
