<?xml version="1.0" encoding="UTF-8" standalone="no"?>
<svg
   xmlns:dc="http://purl.org/dc/elements/1.1/"
   xmlns:cc="http://creativecommons.org/ns#"
   xmlns:rdf="http://www.w3.org/1999/02/22-rdf-syntax-ns#"
   xmlns:svg="http://www.w3.org/2000/svg"
   xmlns="http://www.w3.org/2000/svg"
   xmlns:sodipodi="http://sodipodi.sourceforge.net/DTD/sodipodi-0.dtd"
   xmlns:inkscape="http://www.inkscape.org/namespaces/inkscape"
   width="175px"
   height="39px"
   viewBox="0 0 175 39"
   version="1.1"
   id="svg30"
   sodipodi:docname="cli-image.svg"
   inkscape:version="0.92.2 (5c3e80d, 2017-08-06)">
  <metadata
     id="metadata34">
    <rdf:RDF>
      <cc:Work
         rdf:about="">
        <dc:format>image/svg+xml</dc:format>
        <dc:type
           rdf:resource="http://purl.org/dc/dcmitype/StillImage" />
      </cc:Work>
    </rdf:RDF>
  </metadata>
  <sodipodi:namedview
     pagecolor="#ffffff"
     bordercolor="#666666"
     borderopacity="1"
     objecttolerance="10"
     gridtolerance="10"
     guidetolerance="10"
     inkscape:pageopacity="0"
     inkscape:pageshadow="2"
     inkscape:window-width="1618"
     inkscape:window-height="1027"
     id="namedview32"
     showgrid="false"
     inkscape:zoom="2.0285714"
     inkscape:cx="-82.570423"
     inkscape:cy="19.5"
     inkscape:window-x="54"
     inkscape:window-y="-8"
     inkscape:window-maximized="1"
     inkscape:current-layer="svg30" />
  <!-- Generator: Sketch 43.2 (39069) - http://www.bohemiancoding.com/sketch -->
  <title
     id="title2">Slice 1</title>
  <desc
     id="desc4">Created with Sketch.</desc>
  <defs
     id="defs6" />
  <g
     id="Page-1"
     stroke="none"
     stroke-width="1"
     fill="none"
     fill-rule="evenodd">
    <g
       id="play-outline"
       transform="translate(74.000000, 0.000000)"
       fill-rule="nonzero"
       fill="#000000">
      <polygon
         id="Shape"
         points="8 17 17 12 8 7" />
      <path
         d="M12,2 C17.5,2 22,6.5 22,12 C22,17.5 17.5,22 12,22 C6.5,22 2,17.5 2,12 C2,6.5 6.5,2 12,2 Z M12,0 C5.4,0 0,5.4 0,12 C0,18.6 5.4,24 12,24 C18.6,24 24,18.6 24,12 C24,5.4 18.6,0 12,0 Z"
         id="path9" />
    </g>
    <g
       id="header-docs"
       transform="translate(138.000000, 0.000000)"
       fill-rule="nonzero"
       fill="#000000">
      <path
         d="M2.25,19.6363636 L2.25,2.18181818 L8.55,2.18181818 C8.55,2.18181818 13.5,2.18181818 13.5,5.45454545 L13.5,20.9454545 C13.5,20.9454545 12.825,19.6363636 8.325,19.6363636 L2.25,19.6363636 Z M16.875,0 C14.4,0 13.5,1.74545455 13.5,1.74545455 C13.5,1.74545455 12.6,0 8.55,0 L0,0 L0,21.8181818 L8.325,21.8181818 C8.325,21.8181818 13.5,21.8181818 13.5,24 C13.5,21.8181818 18.45,21.8181818 18.45,21.8181818 L27,21.8181818 L27,0 L16.875,0 Z"
         id="path12" />
    </g>
    <g
       id="download"
       transform="translate(10.000000, 0.000000)"
       fill-rule="nonzero"
       fill="#000000">
      <polygon
         id="polygon15"
         points="19 9.4 17.8 8.3 13 13 13 0 11 0 11 13 6.2 8.3 5 9.4 12 16" />
      <polygon
         id="polygon17"
         points="22 14 22 20 2 20 2 14 0 14 0 24 24 24 24 14" />
    </g>
    <text
       id="Download"
       font-size="10"
       font-weight="300"
       x="2"
       style="font-weight:300;font-size:10px;font-family:HelveticaNeue-Light, 'Helvetica Neue';fill:#1d3649">
      <tspan
         x="2"
         y="37"
         id="tspan20">Descargar</tspan>
    </text>
    <text
       id="Get-Started"
       fill="#1D3649"
       font-family="HelveticaNeue-Light, Helvetica Neue"
       font-size="10"
       font-weight="300">
      <tspan
         x="61"
         y="37"
         id="tspan23">Iniciación</tspan>
    </text>
    <text
       id="View-Docs"
       font-size="10"
       font-weight="300"
       x="-14"
       style="font-weight:300;font-size:10px;font-family:HelveticaNeue-Light, 'Helvetica Neue';fill:#1d3649">
      <tspan
         x="115"
         y="37"
         id="tspan26">Ver documentos</tspan>
    </text>
  </g>
</svg>
