<?xml version="1.0" encoding="UTF-8" standalone="no"?>
<svg
   xmlns:dc="http://purl.org/dc/elements/1.1/"
   xmlns:cc="http://creativecommons.org/ns#"
   xmlns:rdf="http://www.w3.org/1999/02/22-rdf-syntax-ns#"
   xmlns:svg="http://www.w3.org/2000/svg"
   xmlns="http://www.w3.org/2000/svg"
   id="svg30"
   version="1.1"
   viewBox="0 0 175 39"
   height="39px"
   width="175px">
  <metadata
     id="metadata34">
    <rdf:RDF>
      <cc:Work
         rdf:about="">
        <dc:format>image/svg+xml</dc:format>
        <dc:type
           rdf:resource="http://purl.org/dc/dcmitype/StillImage" />
        <dc:title>Slice 1</dc:title>
      </cc:Work>
    </rdf:RDF>
  </metadata>
  <!-- Generator: Sketch 43.2 (39069) - http://www.bohemiancoding.com/sketch -->
  <title
     id="title2">Slice 1</title>
  <desc
     id="desc4">Created with Sketch.</desc>
  <defs
     id="defs6" />
  <g
     style="fill:none;fill-rule:evenodd;stroke:none;stroke-width:1"
     id="Page-1">
    <g
       style="fill:#000000;fill-rule:nonzero"
       transform="translate(74)"
       id="play-outline">
      <polygon
         points="8,7 8,17 17,12 "
         id="Shape" />
      <path
         id="path9"
         d="M 12,2 C 17.5,2 22,6.5 22,12 22,17.5 17.5,22 12,22 6.5,22 2,17.5 2,12 2,6.5 6.5,2 12,2 Z M 12,0 C 5.4,0 0,5.4 0,12 0,18.6 5.4,24 12,24 18.6,24 24,18.6 24,12 24,5.4 18.6,0 12,0 Z" />
    </g>
    <g
       style="fill:#000000;fill-rule:nonzero"
       transform="translate(138)"
       id="header-docs">
      <path
         id="path12"
         d="M 2.25,19.636364 V 2.1818182 h 6.3 c 0,0 4.95,0 4.95,3.2727273 V 20.945454 c 0,0 -0.675,-1.30909 -5.175,-1.30909 z M 16.875,0 C 14.4,0 13.5,1.7454545 13.5,1.7454545 13.5,1.7454545 12.6,0 8.55,0 H 0 v 21.818182 h 8.325 c 0,0 5.175,0 5.175,2.181818 0,-2.181818 4.95,-2.181818 4.95,-2.181818 H 27 V 0 Z" />
    </g>
    <g
       style="fill:#000000;fill-rule:nonzero"
       transform="translate(10)"
       id="download">
      <polygon
         points="13,13 13,0 11,0 11,13 6.2,8.3 5,9.4 12,16 19,9.4 17.8,8.3 "
         id="polygon15" />
      <polygon
         points="2,14 0,14 0,24 24,24 24,14 22,14 22,20 2,20 "
         id="polygon17" />
    </g>
    <text
       style="font-weight:300;font-size:10px;font-family:HelveticaNeue-Light, 'Helvetica Neue';fill:#1d3649"
       font-weight="300"
       font-size="10"
       id="Download">
      <tspan
         id="tspan20"
         y="37"
         x="0">Download</tspan>
    </text>
    <text
       x="16"
       style="font-weight:300;font-size:10px;font-family:HelveticaNeue-Light, 'Helvetica Neue';fill:#1d3649"
       font-weight="300"
       font-size="10"
       id="Get-Started">
      <tspan
         id="tspan23"
         y="37"
         x="77">Start</tspan>
    </text>
    <text
       y="0"
       x="18.444744"
       style="font-weight:300;font-size:10px;font-family:HelveticaNeue-Light, 'Helvetica Neue';fill:#1d3649"
       font-weight="300"
       font-size="10"
       id="View-Docs">
      <tspan
         style="text-align:start;text-anchor:start"
         dy="-7.6300001"
         id="tspan26"
         y="37"
         x="123">Dokumente</tspan>
    </text>
    <text
       id="text36"
       style="font-weight:300;font-size:10px;font-family:HelveticaNeue-Light, 'Helvetica Neue';fill:#1d3649"
       font-weight="300"
       font-size="10">
      <tspan
         id="tspan38"
         y="37"
         x="129">anzeigen</tspan>
    </text>
  </g>
</svg>
