<?xml version="1.0" encoding="UTF-8"?>
<svg width="12px" height="11px" viewBox="0 0 12 11" version="1.1" xmlns="http://www.w3.org/2000/svg" xmlns:xlink="http://www.w3.org/1999/xlink">
    <!-- Generator: Sketch 43.2 (39069) - http://www.bohemiancoding.com/sketch -->
    <title>Slice 1</title>
    <desc>Created with Sketch.</desc>
    <defs></defs>
    <g id="Page-1" stroke="none" stroke-width="1" fill="none" fill-rule="evenodd">
        <g id="header-docs" fill="#000000">
            <path d="M1,9 L1,1 L3.8,1 C3.8,1 6,1 6,2.5 L6,9.6 C6,9.6 5.7,9 3.7,9 L1,9 Z M7.5,0 C6.4,0 6,0.8 6,0.8 C6,0.8 5.6,0 3.8,0 L0,0 L0,10 L3.7,10 C3.7,10 6,10 6,11 C6,10 8.2,10 8.2,10 L12,10 L12,0 L7.5,0 Z" id="Shape"></path>
        </g>
    </g>
</svg>
