<?xml version="1.0" encoding="UTF-8" standalone="no"?>
<svg
   xmlns:dc="http://purl.org/dc/elements/1.1/"
   xmlns:cc="http://creativecommons.org/ns#"
   xmlns:rdf="http://www.w3.org/1999/02/22-rdf-syntax-ns#"
   xmlns:svg="http://www.w3.org/2000/svg"
   xmlns="http://www.w3.org/2000/svg"
   xmlns:sodipodi="http://sodipodi.sourceforge.net/DTD/sodipodi-0.dtd"
   xmlns:inkscape="http://www.inkscape.org/namespaces/inkscape"
   width="175px"
   height="39px"
   viewBox="0 0 175 39"
   version="1.1"
   id="svg30"
   sodipodi:docname="cli-image.svg"
   inkscape:version="0.92.3 (2405546, 2018-03-11)">
  <metadata
     id="metadata34">
    <rdf:RDF>
      <cc:Work
         rdf:about="">
        <dc:format>image/svg+xml</dc:format>
        <dc:type
           rdf:resource="http://purl.org/dc/dcmitype/StillImage" />
      </cc:Work>
    </rdf:RDF>
  </metadata>
  <sodipodi:namedview
     pagecolor="#ffffff"
     bordercolor="#666666"
     borderopacity="1"
     objecttolerance="10"
     gridtolerance="10"
     guidetolerance="10"
     inkscape:pageopacity="0"
     inkscape:pageshadow="2"
     inkscape:window-width="1920"
     inkscape:window-height="1001"
     id="namedview32"
     showgrid="false"
     inkscape:zoom="2.5371429"
     inkscape:cx="94.985855"
     inkscape:cy="19.5"
     inkscape:window-x="-9"
     inkscape:window-y="51"
     inkscape:window-maximized="1"
     inkscape:current-layer="svg30" />
  <!-- Generator: Sketch 43.2 (39069) - http://www.bohemiancoding.com/sketch -->
  <title
     id="title2">Slice 1</title>
  <desc
     id="desc4">Created with Sketch.</desc>
  <defs
     id="defs6" />
  <g
     style="fill:#000000;fill-rule:nonzero;stroke:none;stroke-width:1"
     transform="translate(68)"
     id="play-outline">
    <polygon
       points="8,7 8,17 17,12 "
       id="Shape" />
    <path
       inkscape:connector-curvature="0"
       id="path9"
       d="M 12,2 C 17.5,2 22,6.5 22,12 22,17.5 17.5,22 12,22 6.5,22 2,17.5 2,12 2,6.5 6.5,2 12,2 Z M 12,0 C 5.4,0 0,5.4 0,12 0,18.6 5.4,24 12,24 18.6,24 24,18.6 24,12 24,5.4 18.6,0 12,0 Z" />
  </g>
  <g
     style="fill:#000000;fill-rule:nonzero;stroke:none;stroke-width:1"
     transform="translate(132)"
     id="header-docs">
    <path
       inkscape:connector-curvature="0"
       id="path12"
       d="M 2.25,19.636364 V 2.1818182 h 6.3 c 0,0 4.95,0 4.95,3.2727273 V 20.945454 c 0,0 -0.675,-1.30909 -5.175,-1.30909 z M 16.875,0 C 14.4,0 13.5,1.7454545 13.5,1.7454545 13.5,1.7454545 12.6,0 8.55,0 H 0 v 21.818182 h 8.325 c 0,0 5.175,0 5.175,2.181818 0,-2.181818 4.95,-2.181818 4.95,-2.181818 H 27 V 0 Z" />
  </g>
  <g
     style="fill:#000000;fill-rule:nonzero;stroke:none;stroke-width:1"
     transform="translate(10)"
     id="download">
    <polygon
       points="13,13 13,0 11,0 11,13 6.2,8.3 5,9.4 12,16 19,9.4 17.8,8.3 "
       id="polygon15" />
    <polygon
       points="2,20 2,14 0,14 0,24 24,24 24,14 22,14 22,20 "
       id="polygon17" />
  </g>
  <text
     style="font-weight:300;font-size:10px;font-family:HelveticaNeue-Light, 'Helvetica Neue';fill:#1d3649;fill-rule:evenodd;stroke:none;stroke-width:1"
     font-weight="300"
     font-size="10"
     id="Download">
    <tspan
       style="font-style:normal;font-variant:normal;font-weight:normal;font-stretch:normal;font-size:8px;font-family:HelveticaNeue-Light, 'Helvetica Neue';-inkscape-font-specification:'HelveticaNeue-Light, Helvetica Neue, Normal';font-variant-ligatures:normal;font-variant-caps:normal;font-variant-numeric:normal;font-feature-settings:normal;text-align:start;writing-mode:lr-tb;text-anchor:start"
       id="tspan20"
       y="37"
       x="0">Télécharger</tspan>
  </text>
  <text
     style="font-style:normal;font-variant:normal;font-weight:normal;font-stretch:normal;font-size:8px;font-family:HelveticaNeue-Light, 'Helvetica Neue';-inkscape-font-specification:'HelveticaNeue-Light, Helvetica Neue, Normal';font-variant-ligatures:normal;font-variant-caps:normal;font-variant-numeric:normal;font-feature-settings:normal;text-align:start;writing-mode:lr-tb;text-anchor:start;fill:#1d3649;fill-rule:evenodd;stroke:none;stroke-width:1"
     font-weight="300"
     font-size="10"
     id="Get-Started"
     x="-6">
    <tspan
       style="font-style:normal;font-variant:normal;font-weight:normal;font-stretch:normal;font-size:8px;font-family:HelveticaNeue-Light, 'Helvetica Neue';-inkscape-font-specification:'HelveticaNeue-Light, Helvetica Neue, Normal';font-variant-ligatures:normal;font-variant-caps:normal;font-variant-numeric:normal;font-feature-settings:normal;text-align:start;writing-mode:lr-tb;text-anchor:start"
       id="tspan23"
       y="37"
       x="55">Mise en route</tspan>
  </text>
  <text
     y="37.049549"
     x="113.81982"
     style="font-weight:300;font-size:10px;font-family:HelveticaNeue-Light, 'Helvetica Neue';fill:#1d3649;fill-rule:evenodd;stroke:none;stroke-width:1"
     font-weight="300"
     font-size="10"
     id="View-Docs">
    <tspan
       sodipodi:role="line"
       id="tspan55"
       style="font-style:normal;font-variant:normal;font-weight:normal;font-stretch:normal;font-size:8px;font-family:HelveticaNeue-Light, 'Helvetica Neue';-inkscape-font-specification:'HelveticaNeue-Light, Helvetica Neue, Normal';font-variant-ligatures:normal;font-variant-caps:normal;font-variant-numeric:normal;font-feature-settings:normal;text-align:start;writing-mode:lr-tb;text-anchor:start"
       x="113.81982"
       y="37.049549">Afficher la doc</tspan>
  </text>
</svg>
