<?xml version="1.0" encoding="UTF-8" standalone="no"?>
<svg
   xmlns:dc="http://purl.org/dc/elements/1.1/"
   xmlns:cc="http://creativecommons.org/ns#"
   xmlns:rdf="http://www.w3.org/1999/02/22-rdf-syntax-ns#"
   xmlns:svg="http://www.w3.org/2000/svg"
   xmlns="http://www.w3.org/2000/svg"
   xmlns:sodipodi="http://sodipodi.sourceforge.net/DTD/sodipodi-0.dtd"
   xmlns:inkscape="http://www.inkscape.org/namespaces/inkscape"
   width="175px"
   height="39px"
   viewBox="0 0 175 39"
   version="1.1"
   id="svg2"
   inkscape:version="0.91 r13725"
   sodipodi:docname="cli-image.svg">
  <metadata
     id="metadata34">
    <rdf:RDF>
      <cc:Work
         rdf:about="">
        <dc:format>image/svg+xml</dc:format>
        <dc:type
           rdf:resource="http://purl.org/dc/dcmitype/StillImage" />
      </cc:Work>
    </rdf:RDF>
  </metadata>
  <sodipodi:namedview
     pagecolor="#ffffff"
     bordercolor="#666666"
     borderopacity="1"
     objecttolerance="10"
     gridtolerance="10"
     guidetolerance="10"
     inkscape:pageopacity="0"
     inkscape:pageshadow="2"
     inkscape:window-width="1440"
     inkscape:window-height="848"
     id="namedview32"
     showgrid="false"
     inkscape:zoom="2.2057143"
     inkscape:cx="-17.001295"
     inkscape:cy="19.5"
     inkscape:window-x="-8"
     inkscape:window-y="-8"
     inkscape:window-maximized="1"
     inkscape:current-layer="svg2" />
  <!-- Generator: Sketch 43.2 (39069) - http://www.bohemiancoding.com/sketch -->
  <title
     id="title4">Slice 1</title>
  <desc
     id="desc6">Created with Sketch.</desc>
  <defs
     id="defs8" />
  <g
     style="fill:#000000;fill-rule:nonzero;stroke:none;stroke-width:1"
     transform="translate(74,0)"
     id="play-outline">
    <polygon
       points="8,7 8,17 17,12 "
       id="Shape" />
    <path
       inkscape:connector-curvature="0"
       id="path13"
       d="M 12,2 C 17.5,2 22,6.5 22,12 22,17.5 17.5,22 12,22 6.5,22 2,17.5 2,12 2,6.5 6.5,2 12,2 Z M 12,0 C 5.4,0 0,5.4 0,12 0,18.6 5.4,24 12,24 18.6,24 24,18.6 24,12 24,5.4 18.6,0 12,0 Z" />
  </g>
  <g
     style="fill:#000000;fill-rule:nonzero;stroke:none;stroke-width:1"
     transform="translate(138,0)"
     id="header-docs">
    <path
       inkscape:connector-curvature="0"
       id="path16"
       d="m 2.25,19.636364 0,-17.4545458 6.3,0 c 0,0 4.95,0 4.95,3.2727273 l 0,15.4909085 c 0,0 -0.675,-1.30909 -5.175,-1.30909 l -6.075,0 z M 16.875,0 C 14.4,0 13.5,1.7454545 13.5,1.7454545 13.5,1.7454545 12.6,0 8.55,0 L 0,0 l 0,21.818182 8.325,0 c 0,0 5.175,0 5.175,2.181818 0,-2.181818 4.95,-2.181818 4.95,-2.181818 l 8.55,0 L 27,0 16.875,0 Z" />
  </g>
  <g
     style="fill:#000000;fill-rule:nonzero;stroke:none;stroke-width:1"
     transform="translate(10,0)"
     id="download">
    <polygon
       points="13,13 13,0 11,0 11,13 6.2,8.3 5,9.4 12,16 19,9.4 17.8,8.3 "
       id="polygon19" />
    <polygon
       points="2,20 2,14 0,14 0,24 24,24 24,14 22,14 22,20 "
       id="polygon21" />
  </g>
  <text
     style="font-weight:300;font-size:10px;font-family:HelveticaNeue-Light, 'Helvetica Neue';fill:#1d3649;fill-rule:evenodd;stroke:none;stroke-width:1"
     font-weight="300"
     font-size="10"
     id="Download">
    <tspan
       id="tspan24"
       y="37"
       x="0"
       style="font-size:7.5px">Télécharger</tspan>
  </text>
  <text
     style="font-weight:300;font-size:10px;font-family:HelveticaNeue-Light, 'Helvetica Neue';fill:#1d3649;fill-rule:evenodd;stroke:none;stroke-width:1"
     font-weight="300"
     font-size="10"
     id="Get-Started">
    <tspan
       id="tspan27"
       y="37"
       x="61"
       style="font-size:7.5px">Mise en route</tspan>
  </text>
  <text
     style="font-weight:300;font-size:10px;line-height:110.00000238%;font-family:HelveticaNeue-Light, 'Helvetica Neue';text-align:center;writing-mode:lr-tb;text-anchor:middle;fill:#1d3649;fill-rule:evenodd;stroke:none;stroke-width:1"
     font-weight="300"
     font-size="10"
     id="View-Docs"
     sodipodi:linespacing="110%"
     x="146"
     y="30">
    <tspan
       sodipodi:role="line"
       id="tspan3380"
       style="font-size:7.5px"
       x="146"
       y="30">Afficher la</tspan>
    <tspan
       sodipodi:role="line"
       id="tspan3382"
       style="font-size:7.5px"
       x="146"
       y="38.25">documentation</tspan>
  </text>
  <text
     style="font-weight:300;font-size:10px;font-family:HelveticaNeue-Light, 'Helvetica Neue';fill:#1d3649;fill-rule:evenodd;stroke:none;stroke-width:1"
     font-weight="300"
     font-size="10"
     id="text3376">
    <tspan
       y="37"
       x="129"
       style="font-size:7.5px"
       id="tspan3378" />
  </text>
</svg>
